<svg xmlns="http://www.w3.org/2000/svg">
  <symbol id="github" viewBox="0 0 16 16">
    <title>Github</title>
    <path d="M8 0C3.58 0 0 3.582 0 8c0 3.535 2.292 6.533 5.47 7.59.4.075.547-.172.547-.385 0-.19-.007-.693-.01-1.36-2.226.483-2.695-1.073-2.695-1.073-.364-.924-.89-1.17-.89-1.17-.725-.496.056-.486.056-.486.803.056 1.225.824 1.225.824.714 1.223 1.873.87 2.33.665.072-.517.278-.87.507-1.07-1.777-.2-3.644-.888-3.644-3.953 0-.873.31-1.587.823-2.147-.083-.202-.358-1.015.077-2.117 0 0 .672-.215 2.2.82.638-.178 1.323-.266 2.003-.27.68.004 1.364.092 2.003.27 1.527-1.035 2.198-.82 2.198-.82.437 1.102.163 1.915.08 2.117.513.56.823 1.274.823 2.147 0 3.073-1.87 3.75-3.653 3.947.287.246.543.735.543 1.48 0 1.07-.01 1.933-.01 2.195 0 .215.144.463.55.385C13.71 14.53 16 11.534 16 8c0-4.418-3.582-8-8-8"/>
  </symbol>

  <symbol id="codepen" viewBox="0 0 16 16">
    <title>CodePen</title>
    <path d="M15.988 5.443c-.004-.02-.007-.04-.012-.058l-.01-.033c-.006-.017-.012-.034-.02-.05-.003-.012-.01-.023-.014-.034l-.023-.045-.02-.032-.03-.04-.024-.03c-.01-.013-.022-.026-.034-.038l-.027-.027-.04-.032-.03-.024-.012-.01L8.38.117c-.23-.155-.53-.155-.76 0L.305 4.99.296 5c-.012.007-.022.015-.032.023-.014.01-.027.02-.04.032l-.027.027-.034.037-.024.03-.03.04c-.006.012-.013.022-.02.033l-.023.045-.015.034c-.007.016-.012.033-.018.05l-.01.032c-.005.02-.01.038-.012.058l-.006.03C.002 5.5 0 5.53 0 5.56v4.875c0 .03.002.06.006.09l.007.03c.003.02.006.04.013.058l.01.033c.006.018.01.035.018.05l.015.033c.006.016.014.03.023.047l.02.03c.008.016.018.03.03.042.007.01.014.02.023.03.01.012.02.025.034.036.01.01.018.02.028.026l.04.033.03.023.01.01 7.31 4.876c.116.078.248.117.382.116.134 0 .266-.04.38-.116l7.314-4.875.01-.01c.012-.007.022-.015.032-.023.014-.01.027-.02.04-.032l.027-.027.034-.037.024-.03.03-.04.02-.032.023-.046.015-.033.018-.052.01-.033c.005-.02.01-.038.013-.058 0-.01.003-.02.004-.03.004-.03.006-.06.006-.09V5.564c0-.03-.002-.06-.006-.09l-.007-.03zM8 9.626L5.568 8 8 6.374 10.432 8 8 9.626zM7.312 5.18l-2.98 1.993-2.406-1.61 5.386-3.59v3.206zM3.095 8l-1.72 1.15v-2.3L3.095 8zm1.237.828l2.98 1.993v3.208l-5.386-3.59 2.406-1.61zm4.355 1.993l2.98-1.993 2.407 1.61-5.387 3.59v-3.206zM12.905 8l1.72-1.15v2.3L12.905 8zm-1.237-.827L8.688 5.18V1.97l5.386 3.59-2.406 1.61z" fill-rule="nonzero"/>
  </symbol>

  <symbol id="linkedin" viewBox="0 0 16 16">
    <title>LinkedIn</title>
    <path d="M13.632 13.635h-2.37V9.922c0-.886-.018-2.025-1.234-2.025-1.235 0-1.424.964-1.424 1.96v3.778h-2.37V6H8.51V7.04h.03c.318-.6 1.092-1.233 2.247-1.233 2.4 0 2.845 1.58 2.845 3.637v4.188zM3.558 4.955c-.762 0-1.376-.617-1.376-1.377 0-.758.614-1.375 1.376-1.375.76 0 1.376.617 1.376 1.375 0 .76-.617 1.377-1.376 1.377zm1.188 8.68H2.37V6h2.376v7.635zM14.816 0H1.18C.528 0 0 .516 0 1.153v13.694C0 15.484.528 16 1.18 16h13.635c.652 0 1.185-.516 1.185-1.153V1.153C16 .516 15.467 0 14.815 0z" fill-rule="nonzero"></path>
  </symbol>

  <symbol id="twitter" viewBox="0 0 16 16">
    <title>Twitter</title>
    <path d="M16 3.038c-.59.26-1.22.437-1.885.517.677-.407 1.198-1.05 1.443-1.816-.634.375-1.337.648-2.085.795-.598-.638-1.45-1.036-2.396-1.036-1.812 0-3.282 1.468-3.282 3.28 0 .258.03.51.085.75C5.152 5.39 2.733 4.084 1.114 2.1.83 2.583.67 3.147.67 3.75c0 1.14.58 2.143 1.46 2.732-.538-.017-1.045-.165-1.487-.41v.04c0 1.59 1.13 2.918 2.633 3.22-.276.074-.566.114-.865.114-.21 0-.416-.02-.617-.058.418 1.304 1.63 2.253 3.067 2.28-1.124.88-2.54 1.404-4.077 1.404-.265 0-.526-.015-.783-.045 1.453.93 3.178 1.474 5.032 1.474 6.038 0 9.34-5 9.34-9.338 0-.143-.004-.284-.01-.425.64-.463 1.198-1.04 1.638-1.7z" fill-rule="nonzero"></path>
  </symbol>

  <symbol id="email" viewBox="0 0 32 32">
    <title>Email</title>
    <path d="M28 11.094v12.406c0 1.375-1.125 2.5-2.5 2.5h-23c-1.375 0-2.5-1.125-2.5-2.5v-12.406c0.469 0.516 1 0.969 1.578 1.359 2.594 1.766 5.219 3.531 7.766 5.391 1.313 0.969 2.938 2.156 4.641 2.156h0.031c1.703 0 3.328-1.188 4.641-2.156 2.547-1.844 5.172-3.625 7.781-5.391 0.562-0.391 1.094-0.844 1.563-1.359zM28 6.5c0 1.75-1.297 3.328-2.672 4.281-2.438 1.687-4.891 3.375-7.313 5.078-1.016 0.703-2.734 2.141-4 2.141h-0.031c-1.266 0-2.984-1.437-4-2.141-2.422-1.703-4.875-3.391-7.297-5.078-1.109-0.75-2.688-2.516-2.688-3.938 0-1.531 0.828-2.844 2.5-2.844h23c1.359 0 2.5 1.125 2.5 2.5z"></path>
  </symbol>

  <symbol id="html5" viewBox="0 0 32 32">
    <title>HTML5</title>
    <path d="M4.665 3.411l2.063 23.176 9.258 2.574 9.284-2.578 2.065-23.172h-22.671zM8.951 8.911l-0.068-0.763h7.107v2.842h-4.005l0.259 2.911h3.746v2.842h-6.341l-0.698-7.833zM22.518 14.665l-0.667 7.483-0.043 0.48-5.822 1.616-5.814-1.616-0.398-4.463h2.849l0.202 2.267 3.163 0.854 3.165-0.856 0.329-3.686h-3.485v-2.842h6.587l-0.069 0.763zM23.032 8.911l-0.129 1.441-0.057 0.639h-6.846v-2.842h7.1l-0.068 0.762z"></path>
  </symbol>

  <symbol id="css3" viewBox="0 0 32 32">
    <title>CSS3</title>
    <path d="M16.017 21.044v0zM4.743 3.519l2.049 22.981 9.194 2.552 9.22-2.556 2.051-22.977h-22.514zM23 8.775l-0.693 7.767h-0l-0.48 5.359-0.042 0.476-5.781 1.603-5.773-1.603-0.395-4.426h2.829l0.201 2.248 3.142 0.847 0.008-0.002 0.002-0 3.134-0.846 0.329-3.655-6.579 0-0.056-0.633-0.129-1.429-0.067-0.756 7.081-0 0.258-2.886h-10.786l-0.056-0.634-0.129-1.429-0.067-0.756h14.118l-0.068 0.756z"></path>
  </symbol>

  <symbol id="js" viewBox="0 0 32 32">
    <title>JavaScript</title>
    <path d="M9.633 7.968h3.751v10.514c0 4.738-2.271 6.392-5.899 6.392-0.888 0-2.024-0.148-2.764-0.395l0.42-3.036c0.518 0.173 1.185 0.296 1.925 0.296 1.58 0 2.567-0.716 2.567-3.282v-10.489zM16.641 20.753c0.987 0.518 2.567 1.037 4.171 1.037 1.728 0 2.641-0.716 2.641-1.826 0-1.012-0.79-1.629-2.789-2.32-2.764-0.987-4.59-2.517-4.59-4.961 0-2.838 2.394-4.985 6.293-4.985 1.9 0 3.258 0.37 4.245 0.839l-0.839 3.011c-0.642-0.321-1.851-0.79-3.455-0.79-1.629 0-2.419 0.765-2.419 1.604 0 1.061 0.913 1.53 3.085 2.369 2.937 1.086 4.294 2.616 4.294 4.985 0 2.789-2.122 5.158-6.688 5.158-1.9 0-3.776-0.518-4.714-1.037l0.765-3.085z"></path>
  </symbol>

  <symbol id="jquery" viewBox="0 0 512 512">
    <title>jQuery</title>
    <g id="Layer_5"><path d="M219.749,256.252l0.001-0.005l-3.251,11.519L219.749,256.252L219.749,256.252z"/><path d="M236.465,281.259l-3.582-0.022L236.465,281.259z"/><path d="M235.544,298.461h0.003l-21.457,0.078L235.544,298.461L235.544,298.461z"/><path d="M240.042,281.28l-3.583-0.021L240.042,281.28z"/><path d="M237.425,296.999l3.737-14.255l-3.737,14.258V296.999L237.425,296.999z"/><path d="M316.427,231.352l-6.962,32.733L316.427,231.352z"/><path d="M298.529,231.352l-5.287,24.453l5.287-24.455V231.352z"/><path d="M315.234,229.879h-14.89c-0.826,0-1.646,0.663-1.821,1.47l-5.287,24.455l-5.286,24.456   c-0.174,0.807-0.993,1.469-1.82,1.469h-9.033h-1.505c-10.426,0-9.221-7.213-7.084-17.093c0.021-0.099,0.042-0.196,0.062-0.298   l0.234-1.246c0.016-0.08,0.031-0.16,0.044-0.233l0.477-2.536l0.51-2.717c0.155-0.819,0.39-2.017,0.545-2.77l2.401-11.741   l2.406-11.741c0.166-0.81-0.376-1.475-1.204-1.475h-15.282c-0.824,0-1.644,0.665-1.812,1.473l-3.287,15.59l-3.286,15.587   c-0.003,0.008-0.005,0.018-0.005,0.024l-0.305,1.449c-3.786,17.279-2.782,33.758,17.789,34.273c0.337,0.01,0.597,0.013,0.597,0.013   h32.289c0.827,0,1.644-0.664,1.816-1.472l6.965-32.731l6.962-32.734C316.597,230.542,316.062,229.879,315.234,229.879   L315.234,229.879z"/><path d="M374.633,281.898c0.826,0,1.368,0.662,1.202,1.472l-1.447,7.066"/><path d="M372.945,297.507l1.444-7.07l-1.446,7.072C372.943,297.507,372.945,297.507,372.945,297.507L372.945,297.507z"/><path d="M371.132,298.993c0.003,0,0.006-0.002,0.008-0.002c-4.383,0.035-17.551,0.136-27.447,0.136   c12.044,0,27.439-0.132,27.439-0.132V298.993z"/><path d="M334.811,272.797c-0.012-0.774,0.869-2.108,1.695-2.108l-1.859-0.03C333.81,279.086,334.811,272.797,334.811,272.797   L334.811,272.797z"/><path d="M345.05,299.123c-0.095,0-0.192,0-0.287,0.002C344.857,299.123,344.955,299.123,345.05,299.123z"/><path d="M374.633,281.898c0.826,0,1.368,0.662,1.202,1.472l-1.447,7.066l-0.235,1.152"/><path d="M352.099,299.108h-0.061H352.099z"/><path d="M348.443,299.119h-0.212H348.443z"/><path d="M347.328,299.121c-0.118,0-0.233,0-0.351,0.002C347.095,299.121,347.21,299.121,347.328,299.121z"/><path d="M346.194,299.123h-0.309H346.194z"/><path d="M348.229,299.119c-0.302,0-0.604,0.002-0.901,0.002C347.626,299.121,347.928,299.119,348.229,299.119z"/><path d="M352.04,299.108c-1.204,0.004-2.406,0.009-3.593,0.011C349.634,299.117,350.837,299.112,352.04,299.108z"/><path d="M371.143,298.991L371.143,298.991c-3.212,0.025-11.142,0.085-19.05,0.115C359.997,299.078,367.929,299.017,371.143,298.991   z"/><path d="M372.945,297.511l1.21-5.922l-1.212,5.925c0-0.002,0.002-0.002,0.002-0.005V297.511z"/><path d="M346.979,299.123h-0.785H346.979z"/><path d="M344.759,299.125h-1.062H344.759z"/><path d="M345.884,299.123h-0.838H345.884z"/><path d="M128.083,272.974l2.312-10.253l-2.644,11.72l-2.537,11.938l2.224-10.465   C127.61,275.104,127.901,273.781,128.083,272.974L128.083,272.974z" fill="#131B28"/><path d="M155.765,229.707h-16.352c-0.827,0-1.652,0.661-1.837,1.465l-1.55,6.843l-1.551,6.846   c-0.182,0.805,0.345,1.465,1.172,1.465h16.478c0.826,0,1.648-0.661,1.825-1.468l1.499-6.844l1.499-6.838v-0.002   C157.124,230.368,156.592,229.707,155.765,229.707L155.765,229.707z"/><path d="M152.207,252.472v-0.002l-4.795,22.187L152.207,252.472z"/><path d="M104.706,325.984c0,0,8.243,0.105,13.482,0.105c-3.979,0-10.554-0.072-13.489-0.106   C104.702,325.983,104.704,325.984,104.706,325.984L104.706,325.984z" fill="#131B28"/><path d="M132.708,252.469l-2.315,10.252L132.708,252.469z" fill="#131B28"/><path d="M151.024,251.001h-16.48c-0.826,0-1.652,0.661-1.834,1.468l-2.315,10.253l-2.312,10.253   c-0.182,0.806-0.474,2.129-0.646,2.938l-2.224,10.466l-2.223,10.465c-0.173,0.806-0.528,2.111-0.792,2.895   c0,0-3.079,9.161-8.255,9.057c-0.22-0.005-0.434-0.007-0.646-0.012c-2.507-0.049-4.479-0.084-4.479-0.084h-0.004   c-0.824-0.012-1.655,0.633-1.847,1.435l-1.71,7.187l-1.707,7.181c-0.192,0.803,0.327,1.466,1.147,1.479   c2.936,0.034,9.51,0.108,13.489,0.108c12.929,0,19.745-7.163,24.113-27.774l5.113-23.657l4.795-22.188   C152.383,251.662,151.849,251.002,151.024,251.001L151.024,251.001z"/><path d="M385.134,298.288c-0.827,0-1.364-0.663-1.189-1.473l12.397-58.069"/><path d="M402.362,296.813l5.015-24.786L402.362,296.813z"/><path d="M384.124,297.552c-0.1-0.404-0.042-1.396,0.134-2.206l5.885-27.564l-6.199,29.035c-0.174,0.809,0.362,1.472,1.188,1.472   h1.506C385.81,298.288,384.226,297.957,384.124,297.552L384.124,297.552z"/><path d="M401.384,297.957c-0.451,0.182-1.496,0.331-2.324,0.331h1.506c0.826,0,1.638-0.663,1.8-1.475l0.301-1.473   C402.501,296.15,401.834,297.774,401.384,297.957L401.384,297.957z"/><path d="M404.874,284.421l2.214-10.938c-0.002,0.007-0.002,0.016-0.004,0.021L404.874,284.421L404.874,284.421z"/><path d="M453.79,242.636l0.683,2.822c0.188,0.808-0.334,1.463-1.158,1.465"/><path d="M402.663,295.342l2.207-10.919L402.663,295.342z"/><path d="M453.111,239.746l0.676,2.89L453.111,239.746z"/><path d="M407.084,273.482c0.164-0.809,0.438-2.122,0.608-2.922l2.364-11.075l-2.677,12.544L407.084,273.482L407.084,273.482z"/><path d="M396.546,237.794c-0.165,0.781-0.375,1.769-0.517,2.422l-5.883,27.564l6.198-29.035L396.546,237.794L396.546,237.794z"/><path d="M454.469,245.458l-0.684-2.822l-0.676-2.89l-0.343-1.463c-1.337-5.2-5.267-8.202-13.799-8.202l-13.283-0.014l-12.234-0.014   h-1.05h-12.716c-0.825,0-1.643,0.66-1.812,1.47l0,0l-0.61,2.876l-0.718,3.397l-0.2,0.952l-6.199,29.035l-5.884,27.564   c-0.175,0.811-0.232,1.802-0.133,2.206c0.1,0.405,1.686,0.736,2.514,0.736h12.416c0.828,0,1.875-0.149,2.324-0.331   c0.45-0.182,1.117-1.807,1.282-2.616l2.208-10.92l2.209-10.917c0.001-0.004,0.002-0.014,0.004-0.021l0.295-1.453l2.677-12.544   l2.365-11.079c0.175-0.805,0.988-1.463,1.814-1.465l39.074-0.02C454.135,246.92,454.657,246.265,454.469,245.458L454.469,245.458z"/><path d="M504.772,219.944c-0.829,0.006-2.181,0.011-3.009,0.011h-12.506c-0.829,0-1.888,0.559-2.354,1.241l-27.656,40.518   c-0.467,0.684-1.001,0.581-1.185-0.224l-2.034-8.926c-0.183-0.807-1.012-1.465-1.837-1.465h-17.78   c-0.828,0-1.317,0.649-1.091,1.444l7.966,27.909c0.228,0.795,0.245,2.103,0.04,2.903l-3.473,13.508   c-0.206,0.801,0.303,1.457,1.131,1.457h17.571c0.825,0,1.671-0.656,1.875-1.457l3.476-13.508c0.204-0.801,0.78-1.998,1.277-2.659   l44.897-59.59c0.499-0.661,0.229-1.197-0.597-1.192L504.772,219.944L504.772,219.944z"/><path d="M363.521,254.897v-0.017c-0.104,0.897-0.932,1.555-1.759,1.555h-22.541c-0.779,0-1.175-0.53-1.061-1.184   c0.007-0.019,0.009-0.036,0.021-0.052c0,0-0.008,0.002-0.015,0.006c0.005-0.026,0.005-0.049,0.013-0.075   c0,0,0.042-0.159,0.103-0.384c2.152-5.724,6.538-9.48,14.78-9.48C362.341,245.268,364.15,249.801,363.521,254.897L363.521,254.897z    M356.907,228.88c-28.933,0-35.79,17.562-39.637,35.287c-3.846,18.066-3.514,34.958,26.426,34.958h1.062   c0.096-0.002,0.191-0.002,0.286-0.002h0.839h0.307h0.785c0.118-0.002,0.234-0.002,0.351-0.002c0.3,0,0.601-0.002,0.902-0.002h0.213   c1.185-0.002,2.388-0.007,3.591-0.011h0.061c7.908-0.031,15.838-0.092,19.052-0.117c0.819-0.012,1.623-0.674,1.793-1.477   l1.212-5.924l0.235-1.154l1.446-7.065c0.167-0.811-0.375-1.473-1.202-1.473h-26.917c-10.705,0-13.885-2.845-12.714-11.208h43.028   l-0.004,0.004c0.012,0,0.021-0.004,0.031-0.004c0.683-0.013,1.316-0.484,1.565-1.111c0.047-0.121,0.088-0.246,0.104-0.375   l-0.005,0.004c6.388-24.098,4.557-40.327-22.813-40.327L356.907,228.88z"/><path d="M220.156,254.806l-0.407,1.441c0,0.005-0.001,0.005-0.001,0.005l-3.249,11.514l-3.248,11.513   c-0.225,0.795-1.085,1.445-1.913,1.445h-17.197c-13.043,0-16.22-10.201-13.043-25.25c3.175-15.391,9.402-24.959,22.24-25.929   C220.883,228.223,224.392,240.562,220.156,254.806L220.156,254.806z M231.949,279.839c0,0,8.108-19.687,9.95-31.058   c2.511-15.222-5.11-37.296-34.547-37.296c-29.27,0-41.979,21.076-46.829,43.988c-4.849,23.077,1.505,43.316,30.607,43.151   l22.96-0.085l21.457-0.078c0.827-0.008,1.672-0.662,1.882-1.461l3.738-14.258c0.208-0.801-0.297-1.459-1.123-1.463l-3.583-0.021   l-3.581-0.021c-0.704-0.006-1.105-0.459-1.021-1.063C231.875,280.065,231.899,279.953,231.949,279.839L231.949,279.839z"/><path d="M376.843,266.662c0,0.545-0.441,0.987-0.987,0.987c-0.545,0-0.986-0.442-0.986-0.987c0-0.544,0.441-0.984,0.986-0.984   C376.401,265.678,376.843,266.118,376.843,266.662z"/><path d="M8.453,241.066c-8.082,11.616-7.075,26.728-0.902,39.071c0.147,0.296,0.301,0.587,0.453,0.879   c0.097,0.184,0.188,0.373,0.289,0.555c0.057,0.109,0.121,0.216,0.18,0.32c0.105,0.197,0.213,0.384,0.322,0.576   c0.192,0.338,0.389,0.674,0.589,1.01c0.111,0.185,0.221,0.369,0.336,0.554c0.223,0.359,0.451,0.716,0.684,1.07   c0.097,0.151,0.192,0.303,0.292,0.449c0.322,0.48,0.651,0.96,0.99,1.431c0.009,0.012,0.019,0.024,0.028,0.036   c0.054,0.076,0.113,0.15,0.167,0.226c0.293,0.405,0.597,0.805,0.902,1.201c0.113,0.144,0.227,0.288,0.34,0.433   c0.273,0.344,0.551,0.685,0.834,1.025c0.106,0.127,0.212,0.255,0.319,0.38c0.379,0.446,0.767,0.892,1.163,1.328   c0.007,0.008,0.016,0.017,0.023,0.024c0.016,0.019,0.03,0.03,0.044,0.048c0.386,0.422,0.781,0.835,1.182,1.247   c0.124,0.127,0.251,0.255,0.378,0.382c0.31,0.312,0.625,0.617,0.943,0.925c0.129,0.122,0.257,0.248,0.386,0.366   c0.425,0.4,0.854,0.793,1.292,1.176c0.008,0.008,0.013,0.014,0.021,0.017c0.074,0.066,0.151,0.13,0.225,0.191   c0.386,0.335,0.779,0.667,1.174,0.993c0.161,0.13,0.324,0.259,0.486,0.388c0.323,0.259,0.65,0.514,0.979,0.765   c0.174,0.133,0.348,0.266,0.523,0.398c0.363,0.266,0.729,0.53,1.098,0.787c0.135,0.098,0.265,0.191,0.4,0.284   c0.037,0.026,0.071,0.054,0.109,0.079c0.351,0.24,0.708,0.474,1.066,0.705c0.154,0.103,0.307,0.208,0.462,0.308   c0.549,0.347,1.106,0.69,1.67,1.023c0.153,0.087,0.308,0.173,0.461,0.26c0.414,0.239,0.831,0.474,1.253,0.703   c0.228,0.123,0.463,0.239,0.693,0.356c0.299,0.157,0.595,0.315,0.897,0.466c0.069,0.035,0.14,0.068,0.208,0.101   c0.121,0.059,0.244,0.116,0.367,0.178c0.47,0.225,0.943,0.444,1.421,0.658c0.102,0.045,0.2,0.09,0.301,0.134   c0.547,0.239,1.1,0.471,1.658,0.69c0.134,0.054,0.269,0.105,0.404,0.159c0.516,0.198,1.039,0.395,1.564,0.579   c0.067,0.023,0.131,0.045,0.197,0.067c0.577,0.202,1.159,0.389,1.745,0.571c0.14,0.041,0.28,0.086,0.421,0.127   c0.597,0.18,1.186,0.394,1.802,0.508c39.084,7.127,50.437-23.487,50.437-23.487c-9.535,12.422-26.46,15.699-42.496,12.051   c-0.608-0.137-1.197-0.326-1.79-0.502c-0.151-0.045-0.298-0.09-0.447-0.136c-0.579-0.178-1.152-0.364-1.723-0.561   c-0.078-0.027-0.157-0.057-0.237-0.085c-0.511-0.18-1.016-0.369-1.52-0.563c-0.142-0.057-0.284-0.11-0.426-0.167   c-0.552-0.218-1.1-0.445-1.641-0.683c-0.112-0.047-0.218-0.097-0.328-0.146c-0.465-0.21-0.925-0.422-1.385-0.643   c-0.132-0.064-0.265-0.127-0.399-0.192c-0.359-0.175-0.716-0.361-1.07-0.544c-0.238-0.125-0.479-0.244-0.714-0.374   c-0.434-0.232-0.859-0.474-1.283-0.72c-0.144-0.081-0.289-0.158-0.434-0.241c-0.563-0.332-1.12-0.676-1.671-1.024   c-0.152-0.097-0.301-0.2-0.451-0.3c-0.399-0.258-0.797-0.52-1.188-0.791c-0.13-0.086-0.256-0.182-0.383-0.269   c-0.378-0.267-0.752-0.538-1.124-0.812c-0.168-0.124-0.334-0.253-0.498-0.377c-0.34-0.261-0.679-0.522-1.014-0.793   c-0.151-0.12-0.303-0.241-0.452-0.362c-0.426-0.351-0.847-0.702-1.263-1.063c-0.043-0.039-0.091-0.076-0.138-0.116   c-0.449-0.396-0.892-0.801-1.328-1.208c-0.127-0.121-0.25-0.238-0.374-0.36c-0.324-0.307-0.642-0.617-0.954-0.935   c-0.125-0.125-0.251-0.249-0.374-0.373c-0.398-0.408-0.788-0.82-1.171-1.239c-0.019-0.021-0.039-0.039-0.058-0.062   c-0.405-0.442-0.8-0.895-1.188-1.352c-0.105-0.125-0.207-0.246-0.311-0.369c-0.289-0.348-0.575-0.7-0.854-1.057   c-0.105-0.127-0.21-0.259-0.314-0.39c-0.336-0.437-0.665-0.871-0.987-1.314c-8.903-12.144-12.102-28.894-4.986-42.649"/><path d="M33.54,231.28c-5.845,8.411-5.527,19.669-0.968,28.564c0.765,1.491,1.624,2.938,2.585,4.315   c0.875,1.255,1.846,2.748,3.008,3.756c0.422,0.464,0.862,0.917,1.312,1.361c0.114,0.117,0.23,0.228,0.346,0.343   c0.436,0.422,0.88,0.839,1.339,1.243c0.019,0.016,0.036,0.034,0.055,0.047c0.005,0.006,0.01,0.008,0.013,0.014   c0.508,0.444,1.032,0.873,1.565,1.294c0.118,0.09,0.235,0.185,0.355,0.277c0.534,0.409,1.078,0.812,1.637,1.195   c0.017,0.012,0.031,0.023,0.047,0.037c0.246,0.169,0.498,0.328,0.747,0.491c0.12,0.078,0.234,0.161,0.354,0.234   c0.398,0.255,0.802,0.504,1.213,0.743c0.058,0.036,0.115,0.065,0.171,0.099c0.354,0.204,0.713,0.405,1.073,0.6   c0.125,0.071,0.253,0.133,0.381,0.199c0.249,0.13,0.497,0.262,0.75,0.389c0.037,0.018,0.076,0.035,0.113,0.051   c0.515,0.254,1.035,0.498,1.565,0.729c0.113,0.05,0.23,0.095,0.346,0.143c0.423,0.18,0.852,0.355,1.282,0.521   c0.183,0.069,0.367,0.135,0.55,0.202c0.39,0.145,0.783,0.277,1.178,0.41c0.179,0.057,0.354,0.115,0.533,0.17   c0.562,0.174,1.117,0.395,1.703,0.492c30.176,5,37.144-18.234,37.144-18.234c-6.281,9.043-18.442,13.36-31.42,9.991   c-0.576-0.151-1.144-0.316-1.708-0.494c-0.173-0.053-0.343-0.109-0.514-0.166c-0.401-0.13-0.8-0.269-1.196-0.412   c-0.181-0.065-0.362-0.132-0.54-0.2c-0.434-0.167-0.862-0.339-1.287-0.52c-0.116-0.05-0.233-0.094-0.347-0.146   c-0.533-0.231-1.057-0.477-1.575-0.73c-0.266-0.131-0.527-0.269-0.789-0.402c-0.151-0.079-0.304-0.157-0.456-0.235   c-0.336-0.183-0.67-0.371-1-0.563c-0.078-0.045-0.159-0.087-0.238-0.135c-0.409-0.239-0.812-0.485-1.21-0.738   c-0.123-0.079-0.241-0.164-0.364-0.244c-0.263-0.171-0.526-0.344-0.784-0.519c-0.556-0.383-1.098-0.785-1.631-1.193   c-0.123-0.097-0.247-0.191-0.367-0.288c-5.681-4.485-10.183-10.615-12.324-17.564c-2.244-7.208-1.761-15.299,2.126-21.865"/><path d="M54.639,223.968c-3.445,5.07-3.784,11.368-1.393,16.968c2.521,5.944,7.687,10.607,13.717,12.817   c0.249,0.093,0.497,0.175,0.749,0.261c0.11,0.034,0.219,0.071,0.33,0.104c0.355,0.112,0.708,0.242,1.075,0.311   c16.662,3.22,21.182-8.551,22.385-10.283c-3.959,5.7-10.612,7.068-18.775,5.087c-0.645-0.158-1.354-0.39-1.975-0.61   c-0.797-0.284-1.582-0.608-2.346-0.974c-1.449-0.697-2.831-1.542-4.112-2.509c-7.304-5.542-11.843-16.116-7.076-24.727"/></g>
  </symbol>

  <symbol id="angular" viewBox="0 0 32 32">
    <title>AngularJS</title>
    <path d="M15.937 11.355l-2.057 4.879h4.433l-2.358-4.924-0.019 0.044zM15.964 4.3l-11.279 3.969 1.782 14.777 9.508 5.226 9.557-5.297 1.782-14.776-11.351-3.899zM20.744 21.849l-1.531-3.545h-6.25l-1.398 3.497-2.601 0.048 6.973-15.513 7.216 15.513h-2.41z"></path>
  </symbol>

  <symbol id="sass" viewBox="0 0 32 32">
    <title>Sass</title>
    <path d="M31.641 21.161c-0.109-0.911-0.578-1.618-1.286-2.172-0.82-0.641-1.78-0.905-2.803-0.947-0.834-0.034-1.65 0.090-2.437 0.376-0.224 0.081-0.444 0.177-0.67 0.268-0.030-0.055-0.062-0.107-0.088-0.162-0.232-0.474-0.512-0.927-0.573-1.47-0.044-0.386-0.098-0.772-0.006-1.153 0.088-0.367 0.204-0.728 0.312-1.091 0.056-0.187 0.017-0.291-0.161-0.375-0.062-0.029-0.129-0.055-0.197-0.065-0.438-0.063-0.869-0.027-1.293 0.096-0.15 0.044-0.259 0.128-0.292 0.294-0.019 0.095-0.058 0.186-0.084 0.28-0.111 0.391-0.189 0.789-0.368 1.161-0.449 0.934-0.96 1.832-1.485 2.724-0.057 0.096-0.116 0.191-0.188 0.308-0.184-0.385-0.38-0.73-0.44-1.136-0.067-0.458-0.12-0.915-0.006-1.37 0.085-0.339 0.196-0.672 0.298-1.006 0.049-0.159 0.026-0.242-0.118-0.326-0.073-0.042-0.155-0.080-0.237-0.092-0.454-0.067-0.901-0.032-1.338 0.11-0.136 0.044-0.207 0.132-0.249 0.272-0.122 0.413-0.226 0.836-0.397 1.229-0.694 1.59-1.407 3.172-2.12 4.753-0.149 0.33-0.323 0.649-0.491 0.97-0.043 0.082-0.104 0.153-0.157 0.23-0.043-0.050-0.059-0.085-0.059-0.119 0.001-0.203-0.023-0.413 0.016-0.609 0.117-0.594 0.252-1.186 0.395-1.775 0.117-0.486 0.254-0.968 0.385-1.452 0.044-0.162 0.045-0.313-0.072-0.449-0.195-0.228-0.603-0.278-0.845-0.102-0.026 0.019-0.057 0.032-0.107 0.061 0.009-0.077 0.014-0.125 0.021-0.173 0.051-0.37 0.061-0.738-0.040-1.103-0.127-0.454-0.45-0.715-0.921-0.701-0.22 0.007-0.45 0.044-0.653 0.124-0.855 0.335-1.512 0.928-2.071 1.642-0.051 0.065-0.118 0.124-0.189 0.163-0.723 0.401-1.449 0.797-2.174 1.195-0.271 0.148-0.542 0.297-0.807 0.442-0.216-0.207-0.413-0.421-0.637-0.603-0.682-0.556-1.375-1.098-2.061-1.648-0.608-0.487-1.198-0.995-1.649-1.64-0.336-0.48-0.552-1.005-0.572-1.599-0.026-0.756 0.188-1.447 0.573-2.091 0.493-0.823 1.164-1.483 1.903-2.082 0.781-0.633 1.626-1.17 2.502-1.66 1.225-0.686 2.486-1.293 3.837-1.694 1.386-0.411 2.791-0.646 4.241-0.482 0.57 0.064 1.123 0.195 1.632 0.474 0.389 0.213 0.708 0.492 0.857 0.929 0.146 0.43 0.142 0.865 0.040 1.301-0.206 0.883-0.69 1.612-1.299 2.263-0.998 1.067-2.216 1.793-3.588 2.273-0.791 0.277-1.605 0.451-2.441 0.521-0.682 0.057-1.35-0.003-1.996-0.241-0.428-0.157-0.8-0.398-1.1-0.747-0.054-0.063-0.122-0.13-0.222-0.072-0.098 0.057-0.115 0.151-0.082 0.245 0.055 0.157 0.105 0.319 0.191 0.459 0.214 0.351 0.527 0.606 0.871 0.825 0.661 0.42 1.399 0.561 2.165 0.594 1.162 0.050 2.296-0.123 3.413-0.435 1.596-0.445 2.983-1.231 4.096-2.471 0.927-1.032 1.588-2.198 1.73-3.605 0.069-0.687-0.004-1.36-0.326-1.986-0.349-0.679-0.903-1.147-1.566-1.494-0.964-0.506-2.006-0.705-3.081-0.763-0.359-0-0.718-0-1.077-0-1.303 0.063-2.562 0.337-3.786 0.782-0.926 0.337-1.835 0.717-2.717 1.157-1.921 0.96-3.71 2.108-5.179 3.699-0.732 0.793-1.352 1.663-1.708 2.693-0.104 0.302-0.168 0.622-0.243 0.934-0.006 0.026 0.023 0.051-0.041 0.077 0 0.147 0 0.293 0 0.44 0.064 0.113 0.071 0.225 0.1 0.338 0.189 0.733 0.578 1.363 1.060 1.937 0.687 0.818 1.518 1.476 2.38 2.096 0.747 0.537 1.505 1.062 2.255 1.595 0.129 0.091 0.248 0.197 0.388 0.309-0.12 0.065-0.221 0.122-0.325 0.175-0.99 0.502-1.942 1.065-2.82 1.747-0.529 0.411-1.041 0.848-1.402 1.418-0.581 0.918-0.787 1.896-0.354 2.94 0.127 0.305 0.32 0.569 0.592 0.763 0.088 0.063 0.187 0.126 0.29 0.15 0.264 0.062 0.534 0.103 0.802 0.152 0.253-0 0.505-0 0.758-0 0.839-0.075 1.602-0.362 2.291-0.838 1.078-0.744 1.804-1.741 2.117-3.022 0.227-0.93 0.236-1.862-0.031-2.788-0.025-0.086-0.056-0.17-0.089-0.253s-0.071-0.164-0.116-0.268c0.572-0.329 1.146-0.659 1.719-0.989 0.009 0.007 0.017 0.015 0.026 0.022-0.031 0.102-0.064 0.204-0.093 0.308-0.204 0.746-0.34 1.505-0.291 2.279 0.052 0.825 0.282 1.597 0.765 2.287 0.39 0.558 1.321 0.578 1.736 0.019 0.147-0.199 0.29-0.406 0.397-0.628 0.28-0.579 0.54-1.168 0.807-1.753 0.012-0.025 0.022-0.050 0.047-0.107-0.019 0.277-0.042 0.52-0.052 0.764-0.016 0.38 0.006 0.758 0.136 1.12 0.111 0.31 0.3 0.541 0.655 0.581 0.242 0.028 0.436-0.083 0.614-0.224 0.279-0.22 0.505-0.491 0.673-0.8 0.475-0.873 0.963-1.74 1.394-2.635 0.466-0.968 0.873-1.964 1.306-2.948 0.024-0.054 0.045-0.109 0.072-0.175 0.102 0.402 0.174 0.795 0.305 1.168 0.152 0.432 0.341 0.854 0.547 1.264 0.097 0.194 0.086 0.32-0.049 0.482-0.564 0.68-1.118 1.368-1.673 2.056-0.123 0.152-0.245 0.306-0.347 0.472-0.062 0.101-0.103 0.223-0.12 0.341-0.033 0.225 0.105 0.441 0.346 0.493 0.219 0.047 0.453 0.065 0.677 0.048 0.774-0.057 1.477-0.329 2.099-0.789 0.805-0.597 1.064-1.41 0.869-2.375-0.053-0.262-0.146-0.517-0.237-0.769-0.041-0.114-0.043-0.194 0.031-0.3 0.644-0.919 1.194-1.895 1.705-2.892 0.020-0.039 0.041-0.079 0.076-0.121 0.166 0.863 0.415 1.694 0.862 2.448-0.228 0.22-0.454 0.419-0.658 0.639-0.45 0.483-0.84 1.009-1.043 1.649-0.087 0.276-0.155 0.556-0.116 0.852 0.061 0.458 0.436 0.755 0.886 0.651 0.963-0.223 1.795-0.677 2.403-1.481 0.409-0.541 0.446-1.145 0.275-1.778-0.047-0.172-0.103-0.341-0.163-0.539 0.238-0.074 0.47-0.162 0.709-0.217 1.245-0.284 2.476-0.234 3.675 0.215 0.7 0.262 1.266 0.702 1.601 1.393 0.41 0.845 0.183 1.646-0.613 2.18-0.074 0.050-0.159 0.089-0.221 0.151-0.038 0.038-0.060 0.115-0.051 0.167 0.005 0.031 0.087 0.069 0.133 0.069 0.262-0.002 0.474-0.139 0.678-0.28 0.511-0.353 0.848-0.829 0.928-1.454 0.002-0.018-0.024-0.035 0.040-0.052 0-0.139 0-0.277 0-0.416-0.064-0.017-0.037-0.034-0.039-0.052zM7.286 22.851c-0.083 1.115-0.588 2.019-1.414 2.75-0.465 0.412-0.997 0.705-1.618 0.808-0.225 0.037-0.455 0.046-0.674-0.047-0.311-0.133-0.381-0.409-0.387-0.704-0.009-0.469 0.155-0.893 0.38-1.296 0.294-0.526 0.725-0.927 1.185-1.301 0.725-0.59 1.512-1.090 2.317-1.561 0.013-0.008 0.029-0.012 0.061-0.025 0.124 0.46 0.184 0.914 0.149 1.377zM13.576 18.006c-0.059 0.356-0.132 0.712-0.236 1.057-0.36 1.194-0.821 2.352-1.32 3.493-0.092 0.211-0.226 0.404-0.343 0.604-0.018 0.031-0.045 0.058-0.071 0.084-0.144 0.143-0.282 0.135-0.355-0.052-0.085-0.217-0.137-0.449-0.182-0.679-0.030-0.154-0.023-0.316-0.032-0.474 0.010-1.123 0.352-2.145 0.934-3.095 0.24-0.392 0.501-0.765 0.899-1.014 0.123-0.076 0.26-0.137 0.399-0.177 0.212-0.060 0.343 0.039 0.308 0.252zM17.867 23.473c0.514-0.6 1.027-1.199 1.542-1.801 0.064 0.669-1.072 2.004-1.542 1.801zM22.793 22.262c-0.109 0.062-0.228 0.108-0.34 0.165-0.102 0.053-0.136-0-0.139-0.088-0.002-0.060 0.007-0.122 0.023-0.18 0.208-0.735 0.591-1.361 1.162-1.871 0.008-0.008 0.021-0.011 0.040-0.021 0.271 0.758-0.042 1.592-0.747 1.995z"></path>
  </symbol>

  <symbol id="bootstrap" viewBox="0 0 32 32">
    <title>BootStrap</title>
    <path d="M8.171 4.999c-0.562 0.083-1.237 0.347-1.716 0.675-0.313 0.207-0.717 0.596-0.95 0.901-0.26 0.343-0.577 1.003-0.702 1.456l-0.106 0.377v15.727l0.106 0.377c0.124 0.453 0.441 1.113 0.702 1.456 0.49 0.641 1.245 1.181 2.003 1.426 0.626 0.2 0.313 0.192 8.486 0.192 8.177 0 7.864 0.008 8.486-0.196 0.762-0.245 1.516-0.781 2.003-1.422 0.26-0.347 0.581-1.007 0.705-1.456l0.102-0.377v-15.727l-0.106-0.377c-0.124-0.452-0.441-1.113-0.701-1.456-0.234-0.306-0.637-0.694-0.95-0.901-0.336-0.23-0.883-0.479-1.305-0.596l-0.37-0.102-7.732-0.004c-4.251-0.004-7.834 0.008-7.954 0.026zM18.709 9.159c1.192 0.196 2.006 0.588 2.538 1.222 0.226 0.268 0.49 0.8 0.6 1.196 0.068 0.26 0.079 0.407 0.083 1.056 0.004 0.683-0.004 0.784-0.083 1.052-0.23 0.8-0.732 1.414-1.543 1.89l-0.279 0.162 0.2 0.064c0.305 0.102 0.815 0.366 1.075 0.562 0.649 0.49 1.101 1.252 1.282 2.161 0.087 0.453 0.087 1.422-0.004 1.837-0.358 1.633-1.622 2.768-3.523 3.149-0.728 0.147-0.916 0.155-4.824 0.155h-3.82v-14.6l3.953 0.015c3.538 0.011 3.99 0.019 4.345 0.079zM13.655 13.277v1.72l1.822-0.015c1.709-0.019 1.837-0.023 2.112-0.098 0.86-0.234 1.233-0.728 1.233-1.633 0-0.694-0.245-1.143-0.777-1.407-0.471-0.234-0.981-0.283-2.983-0.287h-1.407v1.72zM13.655 19.176v2.003l1.991-0.015c2.237-0.015 2.312-0.023 2.863-0.29 0.634-0.309 0.916-0.815 0.916-1.641 0-1.063-0.422-1.652-1.395-1.946-0.275-0.087-0.328-0.087-2.327-0.102l-2.048-0.011v2.003z"></path>
  </symbol>

  <symbol id="vagrant" viewBox="0 0 512 512">
    <title>Vagrant</title>
    <path d="M504.4 35.7c-.5-.7-1.3-1.1-2-1.3-5.3-3.1-10.6-6-15.7-9.1-4.6-2.6-9.1-5.3-13.7-7.9-.2.2-.4.4-.5.4-10.1 5.8-19.9 11.5-30 17.4-.4.2-.5.5-.9.2-.5.2-.9-.2-1.3-.4-1.6-.9-3.3-2-5.1-2.9-8.2-4.8-16.3-9.5-24.5-14.3-.5-.4-.7-.2-1.1 0-5.1 2.9-10.2 5.8-15.4 8.8-5.5 3.1-10.8 6.4-16.3 9.3-5.5 2.9-10.8 6.2-16.1 9.3-7.5 4.4-14.8 8.6-22.3 13-6.4 3.7-12.8 7.3-19.2 11.1-1.6.9-3.3 1.6-4.6 2.9-.4.4-.2.9-.2 1.5v34c0 .7-.2 1.5-.4 2.2-10.2 26.7-20.5 53.2-30.7 79.9-.4.7-.4 1.5-.4 2.4v43.1c0 .9-.2 1.5-1.1 2-6.8 3.8-13.7 7.9-20.5 11.9-.5.4-.9.5-1.3 1.1-2.9 7.5-5.7 14.8-8.6 22.3-.7-.2-.5-.9-.9-1.3-5.7-14.3-11.1-28.7-16.4-42.9-15.2-39.3-30.2-78.6-45.3-117.9-.4-1.1-.5-2.2-.5-3.3V72.7c0-.2-.2-.4-.4-.5-6-3.3-11.9-6.8-17.9-10.2-6.6-3.8-13.3-7.7-19.9-11.5-6.2-3.7-12.6-7.3-18.8-10.8-7.3-4.2-14.8-8.4-21.9-12.8-6.8-4-13.7-7.9-20.7-11.7-5.1-2.9-10.2-5.8-15.5-9-3.3-2-6.8-4-10.2-5.8-.5-.4-1.3-.4-1.8 0-2.2 1.3-4.4 2.6-6.4 3.7-8.2 4.6-16.3 9.7-24.7 13.9-5.8 2.9-11.3 6.4-17 9.7-4.7 2.5-9.4 5.3-14.2 8V72.6c.4.4.4.7.5 1.1C13.3 105 26.3 136 39.1 167.1c.4.7.5 1.1 1.3 1.6 7.3 4 14.4 8.4 21.7 12.4.9.4 1.1.9 1.1 1.8v40.9c0 1.1.2 2 .5 2.9 31.3 75.7 62.5 151.3 93.6 227 .4 1.1 1.1 1.8 2.2 2.4 30.7 17.7 61.6 35.5 92.3 53.2.4.2.5.5 1.1.4.4-.2.5-.2.9-.4 5.7-3.1 11.1-6.4 16.8-9.5 4.6-2.6 9.3-5.3 13.9-8-.5 0-1.1-.4-1.5-.5-2.2-1.3-4.6-2.6-6.8-3.8l-21.9-12.6c-.4-.2-.7-.7-1.1-.5-.2.2-.4.4-.4.5 0-.2 0-.5.4-.5.4-.2.9.4 1.1.5l21.9 12.6c2.2 1.3 4.6 2.6 6.8 3.8.4.4.9.5 1.5.5.4-.2.9-.4 1.3-.5 7.9-4.4 15.5-9 23.2-13.3 12.6-7.1 25-14.4 37.6-21.6.5-.4.9-.7 1.3-1.3 9.1-22.1 18.3-44.4 27.4-66.5 10.8-26.3 21.7-52.6 32.5-79 12.8-31.1 25.8-62.3 38.6-93.4 9.5-23.2 19.2-46.6 28.9-70 10.1-24.3 19.9-48.4 30-72.7.2-.5.4-1.3.4-2V37.3c-1.1-.7-.9-1.2-1.3-1.6zM62.3 108.3c-.2.2-.4 0-.5 0-.2-.2-.4-.2-.4-.2v1.3c-.2.2-.4 0-.5 0-10.2-5.8-20.5-11.9-30.7-17.7-.2 0-.2-.2-.2-.2.2-.4.5-.5 1.1-.7.2 0 .2-.2.4-.2-.2 0-.2-.2-.2-.2-.2-.2-.2-.5-.2-.9V53.9v35.6c0 .4-.2.5.2.9.2-.4.5-.5 1.1-.7C42.5 83.9 52.5 78 62.6 72.2h.2c-.5 12-.5 24-.5 36.1zm85.2 174.3c-6.9 4-14.1 8-21 12.1-.5.4-1.1.4-1.6.2-.2 0-.2-.2-.2-.2l-.2.2c-.5.4-1.1.4-1.6.2-10.1-5.8-20.1-11.5-30.2-17.5-.2-.2-.4-.4-.5-.4.4-.2.5-.4.9-.4.4-.2.9-.4 1.1-.7v-4.6-29.2-.4 31c.4-.2.5-.4.9-.4 5.3-3.1 10.4-6 15.7-9.1 3.7-2.2 7.5-4.4 11.1-6.6 1.1.5 2.4 1.3 3.5 2.2 1.5.4 2.7 1.3 4 2.2 9 5.1 17.9 10.2 26.9 15.5.4.2.5.4.9.5-3.3 1.8-6.4 3.4-9.7 5.4zm9.7 134.9v-17 17zm0-33.6v-.5.5zm30.5 17.4c-7.9 4.6-15.9 9.1-23.8 13.7-1.8 1.1-3.7 2.2-5.5 3.1-.9.5-1.1.5-1.1.2.2.5.4.4 1.1-.2 1.8-1.1 3.7-2.2 5.5-3.1 7.9-4.6 15.9-9.2 23.8-13.7.4-.2.5-.4.7-.5 0 .1-.3.3-.7.5zm1.1-255.4c0-.7-.4-1.1-.9-1.5-1.8-1.1-3.7-2.2-5.7-3.1-6.2-3.7-12.6-7.3-18.8-10.8-2.2-1.1-4-2.6-6.4-3.5v36.2c-.4-.2-.7-.4-1.1-.5v1.6c-3.3-1.8-6.8-3.8-10.2-5.8-6.8-3.8-13.5-7.9-20.3-11.7-.4-.2-.5-.4-.9-.4 0-.5.5-.5.9-.9.2-.2.2-.2.4-.2h-.2c0-.5.5-.5.9-.9 10.1-5.8 19.9-11.5 30-17.4.2-.2.4-.4.5-.2 2.4.9 4.4 2.4 6.4 3.5 6.4 3.7 12.6 7.3 18.8 10.8 1.8 1.1 3.7 2.2 5.7 3.1.5.6.9 1 .9 1.7zM252 475.1V508c-.2-11.2-.2-21.9 0-32.9zm-.2-1.8c-.4-.2-.7-.4-1.1-.5v1.6c-10.6-6-21-12.1-31.6-18.3.5-.4.9-.5 1.5-.9-.2-.2-.2-.2-.4-.2 10.6-6 21-12.1 31.6-18.3v36.6zm31.5-91.6c-.4.4-.9.5-1.3.9.2 0 .2.2.2.2-1.6 1.3-3.5 2.2-5.3 3.1-8.6 4.9-17 9.9-25.4 14.8-.4.2-.5.5-1.1.5-10.1-5.8-20.3-11.7-30.3-17.5-.4-.2-.9-.4-.7-.9.4-.2.7-.4 1.1-.5 0-.2-.2-.2 0-.4 10.1-5.8 20.3-11.7 30.3-17.5.4-.2.9-.4 1.3-.5.2.9 1.1 1.1 1.6 1.3 9.8 5.4 19.7 11 29.6 16.5zm63.4-291.3c10.1-5.8 20.3-11.7 30.5-17.5.4-.2.7-.5 1.1-.4V108c0 .5-.4.9-.9 1.3-8 4.6-16.3 9.3-24.3 14.1-.7.4-1.5.9-2.2 1.3-.7.4-1.3.9-2.2 1.1-.7.4-1.5.9-2.2 1.3.2-12.4.2-24.7.2-36.7zm-59 326c.4-.2.7-.2.9-.7-.2.4-.6.5-.9.7zm1.4-1.1h.4-.4zm2.4-1.2s-.2 0 0 0c-.2.1-.2.1 0 0-.2 0 0 0 0 0zm1.8-1.1zm.2 0h0zm.2-.4c-.2 0-.2.2-.2.2s.2 0 .2-.2zm8.6-77.3c-.4.2-.5.5-.9.4 5.3-13.2 10.6-26.3 15.7-39.7.4-.7.5-1.1 1.1-.9v-.2c.4-1.1.9-1.1 1.8-.5 8.4 4.9 16.8 9.7 25.2 14.6.4.2.5.4.9.5-.4.4-.9.5-1.3.9.2.2.2.2.4.2-4 2.4-8.2 4.9-12.2 7.1-10.2 5.9-20.5 11.7-30.7 17.6zm43.1 84.1c-.2.2-.2.2-.4.2h.2c0 .5-.5.5-.9.9-9.9 5.7-19.7 11.3-29.6 17-.2.2-.4.2-.4.2-.4-.4-.2-.7-.2-1.1V403c0-.4-.2-.9.2-1.1.4.2.5.4.9.5v-.4c0-.4-.2-.9.2-1.1 10.2 6 20.7 11.9 30.9 17.9 0 .2-.5.4-.9.6zm25.4-205.7c-5.1-2.9-10.2-5.8-15.4-8.8-.4-.2-.5-.2-.7-.2.2 0 .4 0 .7.2 5.2 2.8 10.3 5.7 15.4 8.8 2.4 1.3 4.9 2.9 7.5 4.4-2.5-1.6-4.9-3.1-7.5-4.4zm37.9 58.3c-8.4-4.9-16.8-9.7-25.2-14.6-1.6-.9-3.3-1.8-5.3-2.9 2.4-1.3 4.8-2.7 7.1-4-2.4 1.3-4.6 2.6-7.1 4 1.8 1.1 3.7 2 5.3 2.9 8.3 5 16.8 9.9 25.2 14.6.7.4.9.5 1.1.2 0 .4-.4.4-1.1-.2zm1.2-108.9c-.4.4-.9.5-1.3.9.2 0 .2.2.4.2-2.4 1.6-5.1 3.1-7.5 4.6-8 4.6-16.1 9.3-23.9 13.9-10.6-6-21-12.1-31.6-18.3.5-.4.9-.5 1.5-.9-.2-.2-.2-.2-.4-.2 2.6-1.6 5.1-2.9 7.5-4.4 7.7-4.4 15.5-9 23.2-13.3.7-.4 1.3-.2 1.8.2 9.9 5.8 19.9 11.5 29.8 17.4 0-.3.4-.1.5-.1zm0 108.2zm61.8-181.7c-5.7-3.3-11.3-6.6-17-9.9-4-2.4-8-4.6-12.1-7.1-.4-.2-.9-.2-.9-.7.2.5.5.5.9.7 4 2.4 8 4.6 12.1 7.1 5.7 3.4 11.3 6.7 17 9.9.5.4.9.4 1.1.5-.2-.1-.5-.3-1.1-.5z"/>
  </symbol>

  <symbol id="aws" viewBox="0 0 128 128">
    <title>AWS</title>
    <path d="M44.634 57.361c-2.599 0-5.499 1.001-6.107 4.296-.064.351.167.517.391.567l2.663.32c.246-.014.414-.28.461-.533.228-1.134 1.16-1.669 2.201-1.669.563 0 1.193.193 1.527.71.381.576.354 1.359.354 2.024v.391c-1.582.182-3.666.292-5.147.958-1.709.76-2.912 2.307-2.912 4.58 0 2.913 1.785 4.366 4.083 4.366 1.94 0 3.013-.456 4.509-2.022.497.738.656 1.073 1.562 1.846.202.108.458.098.64-.071v.035c.545-.497 1.535-1.401 2.094-1.881.222-.187.174-.493 0-.746-.5-.707-1.029-1.276-1.029-2.592v-4.366c0-1.85.156-3.556-1.172-4.828-1.046-1.031-2.791-1.385-4.118-1.385zm35.786 0c-2.6 0-5.498 1.001-6.106 4.296-.064.351.166.517.39.567l2.664.32c.246-.014.415-.28.461-.533.229-1.134 1.161-1.669 2.201-1.669.564 0 1.193.193 1.526.71.381.576.319 1.359.319 2.024v.391c-1.582.182-3.63.292-5.112.958-1.711.76-2.91 2.307-2.91 4.58 0 2.913 1.785 4.366 4.082 4.366 1.938 0 3.011-.456 4.509-2.022.495.738.656 1.073 1.563 1.846.203.108.458.098.639-.071v.035c.546-.497 1.537-1.401 2.095-1.881.222-.187.171-.493 0-.746-.5-.707-1.03-1.276-1.03-2.592v-4.366c0-1.85.12-3.556-1.206-4.828-1.05-1.031-2.759-1.385-4.085-1.385zm-20.13.142c-1.68 0-2.924.848-3.585 2.663h-.036v-1.882c-.018-.262-.23-.483-.496-.497h-2.557c-.29 0-.533.245-.533.533v14.378c.022.255.238.479.498.497h2.733c.292 0 .531-.243.532-.533v-7.633c0-1.664-.08-3.94 1.882-3.94 1.937 0 1.668 2.339 1.668 3.94v7.633c0 .271.222.515.498.533h2.733c.29 0 .532-.243.532-.533v-7.633c0-.816-.033-2.006.248-2.733s.971-1.207 1.634-1.207c.789 0 1.394.275 1.598 1.242.126.575.071 2.094.071 2.698v7.633c0 .271.222.515.496.533h2.734c.29 0 .532-.243.532-.533v-9.088c0-1.545.154-3.298-.71-4.509-.765-1.088-2.015-1.563-3.16-1.563-1.605 0-3.101.848-3.763 2.663-.764-1.814-1.842-2.662-3.549-2.662zm46.472 0c-3.949 0-6.142 3.473-6.142 7.953 0 4.448 2.167 8.022 6.142 8.022 3.823 0 6.249-3.492 6.249-7.881 0-4.537-2.198-8.094-6.249-8.094zm15.585 0c-1.887 0-2.966.943-3.728 2.911h-.035v-2.201c-.049-.222-.258-.377-.497-.39h-2.521c-.275 0-.508.199-.533.461v14.378c0 .271.225.515.497.533h2.699c.289 0 .527-.242.531-.533v-7.739c0-.97.083-1.855.463-2.733.306-.697.899-1.137 1.562-1.137 1.883 0 1.703 2.295 1.703 3.87v7.811c.028.244.249.445.498.462h2.733c.269 0 .501-.204.532-.462v-9.053c0-1.392.003-3.324-.71-4.474-.764-1.241-1.975-1.704-3.194-1.704zm-32.803.249c-.278 0-.497.22-.498.532v2.059c.001.31.213.531.498.533h4.686l-5.361 7.916c-.326.511-.354 1.089-.354 1.421v2.095c0 .302.328.63.639.461 3.056-1.668 6.717-1.52 9.479-.035.336.183.675-.16.675-.462v-2.202c-.026-.294-.142-.576-.497-.781-1.568-.901-3.388-1.178-5.111-1.136l4.65-6.815c.43-.613.67-.981.674-1.279v-1.774c0-.306-.209-.532-.496-.532h-8.984zm17.218 2.698c.865 0 1.504.386 1.811 1.384.354 1.152.391 2.588.391 3.799 0 1.846-.086 4.899-2.201 4.899-2.139 0-2.13-3.78-2.13-5.538-.001-1.753.117-4.544 2.129-4.544zm-60.673 5.254v.604c0 1.092.04 2.01-.497 2.981-.434.79-1.116 1.279-1.881 1.279-1.045 0-1.668-.849-1.668-2.06-.001-2.387 2.074-2.804 4.046-2.804zm35.786 0v.604c0 1.092.04 2.01-.496 2.981-.435.79-1.112 1.279-1.882 1.279-1.047 0-1.669-.849-1.669-2.06 0-2.387 2.073-2.804 4.047-2.804z"></path><path d="M99.59 73.656v2.06h1.386v-2.06h-1.386zm-40.152.356v14.662h1.278v-1.314c.272.521.582.91.958 1.171.376.262.806.391 1.277.391.939 0 1.75-.479 2.45-1.455.701-.977 1.065-2.392 1.065-4.189 0-1.178-.151-2.154-.462-2.981-.311-.826-.725-1.441-1.242-1.847-.519-.406-1.107-.639-1.739-.639-.452 0-.874.118-1.244.354-.368.236-.666.622-.958 1.101v-5.254h-1.383zm13.135 3.443c-.962 0-1.728.285-2.271.852s-.815 1.296-.815 2.202c0 .525.115.972.318 1.384.202.413.49.748.852.994.364.246 1.09.57 2.166.923.745.24 1.19.444 1.385.604.281.233.427.538.427.959 0 .486-.17.892-.498 1.207-.328.317-.786.461-1.385.461-.6 0-1.094-.168-1.455-.532-.362-.364-.557-.918-.64-1.668l-1.384.283c.313 2.278 1.449 3.41 3.408 3.408 1.045 0 1.844-.295 2.449-.923.604-.628.924-1.471.924-2.485 0-.548-.098-1.022-.284-1.419-.188-.397-.445-.693-.782-.924-.336-.229-1.089-.536-2.236-.923-.834-.292-1.321-.506-1.49-.64-.284-.224-.427-.53-.427-.922 0-.4.133-.739.427-.995.294-.255.747-.39 1.349-.39 1.058 0 1.65.581 1.774 1.739l1.35-.213c-.094-.732-.253-1.312-.496-1.705-.245-.392-.605-.724-1.065-.958-.465-.232-.992-.319-1.601-.319zm8.486 0c-1.109 0-2.046.457-2.77 1.42-.723.963-1.063 2.358-1.063 4.189 0 1.764.348 3.146 1.063 4.083.718.934 1.646 1.384 2.806 1.384.921 0 1.685-.276 2.307-.852.624-.575 1.077-1.423 1.313-2.557l-1.42-.248c-.407 1.451-1.16 2.163-2.2 2.165-.664 0-1.206-.281-1.669-.887-.464-.607-.726-1.507-.78-2.698h6.105v-.497c0-1.792-.357-3.137-1.065-4.083-.709-.945-1.569-1.419-2.627-1.419zm8.414 0c-.331 0-.621.112-.888.355-.267.242-.567.744-.888 1.49v-1.633h-1.243v10.615h1.385v-5.538c0-.772.074-1.516.249-2.201.1-.394.289-.703.532-.923.244-.221.523-.32.816-.32.326 0 .65.131.994.391l.462-1.668c-.482-.386-.955-.568-1.419-.568zm16.969 0c-1.096 0-1.999.462-2.699 1.385-.696.923-1.063 2.309-1.063 4.153 0 1.831.372 3.218 1.063 4.154.693.934 1.559 1.384 2.628 1.384.884 0 1.642-.328 2.272-.994.63-.665 1.014-1.646 1.172-2.911l-1.35-.213c-.101.905-.336 1.557-.71 1.988-.373.43-.823.639-1.349.639-.67 0-1.241-.313-1.67-.958-.427-.646-.638-1.68-.638-3.124 0-1.4.227-2.41.674-3.053.448-.644 1.021-.994 1.704-.994.457 0 .847.177 1.172.531.327.356.543.918.674 1.634l1.351-.283c-.162-1.119-.521-1.962-1.102-2.521-.58-.56-1.284-.817-2.129-.817zm7.917 0c-1.11 0-2.046.457-2.77 1.42-.723.963-1.065 2.358-1.065 4.189 0 1.764.349 3.146 1.065 4.083.719.934 1.646 1.384 2.805 1.384.918 0 1.685-.276 2.308-.852.622-.575 1.075-1.423 1.314-2.557l-1.42-.248c-.41 1.451-1.128 2.163-2.166 2.165-.664 0-1.241-.281-1.704-.887-.463-.607-.725-1.507-.781-2.698h6.106v-.497c0-1.792-.357-3.137-1.065-4.083-.706-.945-1.568-1.419-2.627-1.419zm8.202 0c-.966 0-1.729.285-2.272.852-.545.566-.817 1.296-.817 2.202 0 .525.082.972.284 1.384.2.413.489.748.853.994.361.246 1.09.57 2.166.923.743.24 1.226.444 1.42.604.281.233.426.538.426.959 0 .486-.168.892-.497 1.207-.326.317-.785.461-1.384.461-.602 0-1.094-.168-1.456-.532-.361-.364-.595-.918-.675-1.668l-1.384.283c.313 2.278 1.446 3.41 3.407 3.408 1.047 0 1.881-.295 2.485-.923s.922-1.471.922-2.485c0-.548-.096-1.022-.282-1.419-.188-.397-.479-.693-.817-.924-.336-.229-1.054-.536-2.2-.923-.835-.292-1.357-.506-1.527-.64-.283-.224-.426-.53-.426-.922 0-.4.167-.739.462-.995.294-.255.75-.39 1.35-.39 1.058 0 1.649.581 1.774 1.739l1.349-.213c-.094-.732-.252-1.312-.497-1.705-.244-.392-.605-.724-1.064-.958-.463-.232-.994-.319-1.6-.319zm-31.668.213l3.09 10.615h1.313l3.089-10.615h-1.42l-1.811 6.497c-.219.785-.413 1.464-.533 2.023-.15-.705-.296-1.446-.496-2.166l-1.775-6.354h-1.457zm8.697 0v10.615h1.386v-10.615h-1.386zm-45.513.143c-1.098 0-1.981.492-2.697 1.455-.717.963-1.102 2.358-1.102 4.189 0 1.765.355 3.113 1.065 4.047.709.935 1.657 1.42 2.806 1.42.911 0 1.655-.312 2.271-.888.616-.575 1.042-1.423 1.279-2.556l-1.385-.213c-.404 1.451-1.136 2.163-2.165 2.165-.659 0-1.21-.281-1.669-.888-.46-.606-.727-1.506-.781-2.697h6.035l.036-.497c0-1.792-.364-3.172-1.065-4.119-.701-.945-1.581-1.418-2.628-1.418zm-15.584.248l2.485 10.615h1.455l1.634-8.165.284 1.81 1.313 6.355h1.42l2.521-10.615h-1.313l-1.386 6.141-.462 2.06-.426-2.06-1.207-6.142h-1.42l-1.278 6.213-.426 2.201-.496-2.272-1.279-6.142h-1.419zm42.53.852c.69 0 1.258.333 1.704.994.306.452.506 1.14.567 2.059h-4.58c.044-.932.307-1.65.747-2.201.44-.55.943-.852 1.562-.852zm33.3 0c.688 0 1.258.333 1.704.994.308.452.506 1.14.569 2.059h-4.581c.044-.932.308-1.65.746-2.201.437-.55.943-.852 1.562-.852zm-60.246.39c.682 0 1.23.334 1.67.995.304.452.505 1.14.567 2.059h-4.51c.043-.932.275-1.687.711-2.236.434-.552.948-.818 1.562-.818zm8.805 0c.615 0 1.14.342 1.563.995.423.652.604 1.659.604 3.053 0 1.357-.2 2.37-.64 3.053-.439.684-.96 1.029-1.526 1.029-.416 0-.794-.14-1.136-.426-.344-.286-.595-.696-.782-1.242-.186-.546-.283-1.387-.283-2.485 0-1.294.231-2.263.674-2.947.443-.684.96-1.03 1.526-1.03z"></path><path d="M18.594 68.048l-5.29 2.271 4.899 2.095 5.681-2.095-5.29-2.271zm-7.952 2.839l-.178 10.226 7.74 3.408v-10.616l-7.562-3.018zm15.904 0l-6.994 2.663v10.012l6.994-2.84v-9.835zM34.889 39.078l-5.326 2.271 4.935 2.095 5.681-2.095-5.29-2.271zm-7.385 3.018v10.224l6.604 1.917.213-9.302-6.817-2.839zm14.769.567l-6.249 2.663v10.047l6.249-2.84v-9.87zM9.877 53.468l-5.29 2.272 4.899 2.095 5.68-2.095-5.289-2.272zm-7.951 2.841l-.178 10.224 7.739 3.408v-10.615l-7.561-3.017zm15.904 0l-6.994 2.662v10.012l6.994-2.84v-9.834zM26.918 53.091l-5.29 2.271 4.899 2.094 5.68-2.094-5.289-2.271zm-7.952 2.839l-.177 10.225 7.739 3.408v-10.615l-7.562-3.018zm15.905 0l-6.994 2.663v10.012l6.994-2.841v-9.834zM51.533 39.078l-5.289 2.271 4.899 2.095 5.681-2.095-5.291-2.271zm-7.952 2.84l-.178 10.225 7.74 3.407v-10.614l-7.562-3.018zm15.904 0l-6.994 2.663v10.011l6.994-2.84v-9.834z"></path>
  </symbol>

  <symbol id="gulp" viewBox="0 0 32 32">
    <title>Gulp</title>
    <path d="M22.211 0.517c-0.031 0.025-0.906 0.931-1.938 2.019l-1.875 1.975-0.75 2.925-2.094 0.037c-3.894 0.081-6.194 0.394-6.619 0.9-0.081 0.094-0.069 0.125 0.075 0.25 1.019 0.875 9.062 1.131 12.781 0.412 1.319-0.256 1.656-0.575 0.938-0.881-0.544-0.237-2.538-0.563-3.431-0.563-0.244 0-0.3-0.019-0.3-0.112 0-0.056 0.137-0.631 0.3-1.269l0.294-1.162 1.75-1.85c0.963-1.019 1.756-1.9 1.769-1.95 0.063-0.281-0.681-0.881-0.9-0.731zM8.998 9.18c0 0.188 0.756 7.3 0.794 7.412 0.012 0.050 0.075-0.044 0.137-0.225 0.556-1.556 1.662-2.875 2.6-3.094 0.456-0.106 0.8 0.006 1.169 0.375 0.406 0.406 0.481 0.844 0.169 1.012-0.156 0.081-0.306-0.031-0.506-0.394-0.431-0.769-1.231-0.363-2.094 1.075-0.912 1.512-1.15 3.188-0.456 3.188 0.256 0 0.875-0.488 1.306-1.025 0.294-0.375 0.406-0.581 0.569-1.063 0.106-0.325 0.231-0.625 0.281-0.662s0.162-0.063 0.262-0.050c0.162 0.019 0.175 0.044 0.194 0.313 0.012 0.206-0.037 0.456-0.175 0.844-0.181 0.512-0.387 1.169-0.775 2.456-0.087 0.294-0.2 0.594-0.256 0.669-0.137 0.194-0.331 0.181-0.419-0.019-0.063-0.131-0.044-0.269 0.131-0.856 0.113-0.387 0.225-0.756 0.244-0.825 0.019-0.081-0.125 0.025-0.394 0.275-0.625 0.581-1.238 0.825-1.6 0.631-0.106-0.056-0.119-0.044-0.119 0.106 0 0.475 0.45 4.738 0.506 4.806 0.188 0.225 1.519 0.606 2.869 0.819 1.031 0.162 3.969 0.162 5 0 0.887-0.144 1.856-0.369 2.325-0.544 0.662-0.244 0.581 0.025 0.956-3.219 0.181-1.581 0.325-2.887 0.313-2.894-0.012-0.012-0.213 0.137-0.444 0.331-0.5 0.425-0.831 0.588-1.2 0.594-0.331 0-0.5-0.081-0.575-0.287-0.088-0.219 0.031-0.475 0.506-1.063 0.531-0.656 0.619-0.781 0.619-0.913 0-0.281-0.644 0.012-1.012 0.463-0.119 0.15-0.294 0.394-0.387 0.544-0.212 0.331-0.762 1.587-1.037 2.369-0.213 0.606-0.412 0.887-0.619 0.887-0.119 0-0.319-0.15-0.319-0.238 0-0.163 0.2-0.669 0.569-1.475 0.238-0.512 0.431-0.944 0.431-0.956s-0.119 0.069-0.269 0.188c-0.356 0.294-0.75 0.481-0.994 0.481-0.238 0-0.488-0.15-0.488-0.287 0-0.113 0.012-0.119-0.381 0.1-0.594 0.325-0.931 0.206-0.931-0.338v-0.25l-0.256 0.269c-0.469 0.481-1.106 0.65-1.456 0.375-0.225-0.175-0.219-0.588 0.019-1.3 0.431-1.275 0.762-1.775 1.056-1.587 0.181 0.113 0.15 0.294-0.137 0.887-0.494 1.019-0.525 1.5-0.087 1.375 0.419-0.119 0.919-0.775 1.269-1.65 0.094-0.244 0.212-0.488 0.269-0.55 0.137-0.156 0.344-0.113 0.413 0.087 0.044 0.131 0 0.306-0.244 0.906-0.2 0.488-0.306 0.838-0.306 1.025-0.006 0.269 0 0.281 0.175 0.269 0.225-0.019 0.587-0.256 0.637-0.425 0.194-0.631 1.637-4.156 1.75-4.281 0.125-0.125 0.175-0.144 0.319-0.088 0.106 0.037 0.181 0.113 0.194 0.194 0.012 0.075-0.106 0.425-0.262 0.781-0.613 1.419-1.412 3.469-1.412 3.625 0 0.1 0.031 0.175 0.063 0.175 0.15 0 0.563-0.262 1.012-0.644 0.4-0.35 0.494-0.463 0.581-0.744 0.238-0.725 0.412-0.931 0.669-0.794 0.1 0.056 0.119 0.113 0.094 0.281-0.019 0.119-0.019 0.213 0 0.213s0.162-0.113 0.313-0.256c0.475-0.431 0.881-0.538 1.256-0.306 0.175 0.106 0.2 0.156 0.2 0.394 0 0.325-0.25 0.769-0.775 1.387-0.194 0.225-0.35 0.438-0.35 0.475 0 0.031 0.063 0.056 0.144 0.056 0.137 0 1.188-0.806 1.419-1.088 0.069-0.087 0.213-1.238 0.544-4.281 0.244-2.287 0.444-4.169 0.431-4.175-0.006-0.012-0.169 0.037-0.363 0.106-0.488 0.169-1.544 0.35-2.813 0.481-1.375 0.137-6.031 0.156-7.394 0.031-1.269-0.119-2.494-0.313-3.013-0.481l-0.456-0.144v0.137zM10.873 24.686c0 0.012 0.2 0.363 0.438 0.775l0.444 0.756 0.181 2.512 0.188 2.519 0.188 0.162c0.469 0.4 1.594 0.625 3.344 0.663 1.988 0.044 3.537-0.206 4.044-0.663l0.2-0.175 0.144-2.537 0.144-2.531 0.406-0.713c0.225-0.387 0.406-0.725 0.406-0.75 0-0.019-0.188 0.025-0.425 0.106-0.844 0.287-2.488 0.544-3.95 0.625-1.625 0.088-4.144-0.219-5.419-0.662-0.181-0.063-0.331-0.1-0.331-0.088z"></path>
  </symbol>

  <symbol id="git" viewBox="0 0 32 32">
    <title>Git</title>
    <path d="M26.852 15.281l-9.848-9.848c-0.567-0.567-1.487-0.567-2.054 0l-2.045 2.045 2.594 2.594c0.603-0.204 1.294-0.067 1.775 0.413 0.483 0.483 0.619 1.181 0.41 1.786l2.5 2.5c0.605-0.209 1.303-0.074 1.786 0.41 0.675 0.675 0.675 1.769 0 2.444s-1.769 0.675-2.445 0c-0.508-0.508-0.633-1.254-0.376-1.88l-2.332-2.332v6.136c0.164 0.082 0.32 0.19 0.457 0.327 0.675 0.675 0.675 1.769 0 2.445-0.675 0.675-1.77 0.675-2.444 0-0.675-0.676-0.675-1.77 0-2.445 0.167-0.167 0.36-0.293 0.566-0.377v-6.193c-0.206-0.084-0.399-0.209-0.566-0.377-0.511-0.511-0.634-1.262-0.372-1.889l-2.557-2.558-6.753 6.752c-0.567 0.568-0.567 1.488 0 2.055l9.849 9.848c0.567 0.567 1.486 0.567 2.054 0l9.802-9.802c0.567-0.567 0.567-1.488 0-2.055z"></path>
  </symbol>

  <symbol id="wordpress" viewBox="0 0 32 32">
    <title>WordPress</title>
    <path d="M4.681 16.27c0 4.473 2.6 8.342 6.371 10.171l-5.391-14.773c-0.628 1.407-0.98 2.962-0.98 4.602zM23.616 15.699c0-1.397-0.503-2.365-0.932-3.118-0.573-0.932-1.109-1.719-1.109-2.652 0-1.039 0.785-2.006 1.898-2.006 0.048 0 0.097 0.007 0.145 0.010-2.010-1.842-4.689-2.968-7.632-2.968-3.95 0-7.424 2.027-9.444 5.096 0.266 0.008 0.515 0.014 0.727 0.014 1.183 0 3.013-0.145 3.013-0.145 0.608-0.034 0.68 0.859 0.071 0.932 0 0-0.611 0.071-1.293 0.108l4.117 12.243 2.474-7.418-1.762-4.825c-0.609-0.037-1.185-0.108-1.185-0.108-0.61-0.037-0.537-0.966 0.073-0.932 0 0 1.865 0.145 2.976 0.145 1.182 0 3.014-0.145 3.014-0.145 0.607-0.034 0.679 0.859 0.070 0.932 0 0-0.611 0.071-1.292 0.108l4.085 12.15 1.128-3.766c0.573-1.47 0.861-2.686 0.861-3.655zM16.184 17.259l-3.393 9.856c1.012 0.297 2.082 0.459 3.194 0.459 1.315 0 2.579-0.228 3.754-0.642-0.030-0.048-0.058-0.099-0.081-0.154l-3.474-9.519zM25.904 10.846c0.050 0.361 0.078 0.747 0.078 1.164 0 1.146-0.215 2.435-0.861 4.049l-3.453 9.981c3.36-1.958 5.619-5.598 5.619-9.769 0-1.967-0.502-3.814-1.384-5.425z"></path>
  </symbol>

  <symbol id="ps" viewBox="0 0 34 32">
    <title>PhotoShop</title>
    <path d="M3.556 2.845v27.071h27.53v-27.071h-27.53zM28.896 27.763h-23.151v-22.765h23.151v22.765z"></path>
    <path d="M16.555 10.442c-0.693-0.599-1.726-0.939-3.173-0.939-1.433 0-3.173 0.046-3.173 0.046l-0 11.103h2.326v-3.568c0 0 0.407-0.005 0.847-0.023 1.593-0.067 2.526-0.549 3.327-1.364 0.616-0.631 0.955-1.53 0.955-2.627s-0.447-2.062-1.109-2.628zM13.32 15.115c-0.375 0.004-0.533 0.016-0.786-0.008v-3.834c0 0 0.493-0.017 0.971 0 1.198 0.044 1.833 0.89 1.833 1.921-0 1.148-0.77 1.906-2.018 1.921z"></path>
    <path d="M22.205 15.455c-1.005-0.356-1.324-0.559-1.324-0.949 0-0.423 0.352-0.677 0.972-0.677 0.703 0 1.767 0.454 2.136 0.658v-1.871c-0.502-0.254-1.265-0.566-2.22-0.566-2.027 0-3.334 1.169-3.334 2.728-0.017 0.965 0.636 1.655 2.329 2.231 0.955 0.322 1.206 0.767 1.206 1.191s-0.318 0.695-1.089 0.695c-0.754 0-1.86-0.431-2.329-0.718v0 1.847c0.62 0.338 1.518 0.659 2.329 0.684 2.363 0.074 3.551-1.152 3.551-2.694-0.017-1.22-0.67-2.016-2.228-2.558z"></path>
  </symbol>

  <symbol id="responsive" viewBox="0 0 512 512">
    <title>Responsive</title>
    <path d="M265.229,364.383c-5.207-3.826-5.758-9.575-5.758-9.575l-1.951-12.473h-62.204l-1.957,12.473c0,0-0.544,5.749-5.748,9.575
		c-5.198,3.83-9.306,7.113-5.198,7.669c3.955,0.531,41.256,0.048,44.008,0c2.759,0.048,40.052,0.531,44.011,0
		C274.531,371.496,270.422,368.221,265.229,364.383z"/>
	<path d="M120.538,259.694c0-5.77-4.681-10.451-10.452-10.451H60.453c-5.771,0-10.453,4.681-10.453,10.451v109.718
		c0,5.777,4.682,10.453,10.453,10.453h49.637c5.768,0,10.452-4.676,10.452-10.453V259.694H120.538z M80.085,261.002h10.451
		c0.722,0,1.306,0.583,1.306,1.3c0,0.724-0.584,1.312-1.306,1.312H80.085c-0.722,0-1.308-0.592-1.308-1.312
		C78.778,261.577,79.364,261.002,80.085,261.002z M84.875,373.685c-2.887,0-5.229-2.338-5.229-5.227
		c0-2.885,2.342-5.227,5.229-5.227c2.885,0,5.225,2.334,5.225,5.227C90.1,371.347,87.764,373.685,84.875,373.685z M114.009,358.968
		H56.531v-87.521h57.479V358.968z"/>
	<path d="M447.343,189.137H339.846c-8.095,0-14.657,6.558-14.657,14.655v153.854c0,8.096,6.563,14.662,14.657,14.662h107.497
		c8.1,0,14.657-6.566,14.657-14.662V203.789C461.996,195.692,455.439,189.137,447.343,189.137z M372.548,364.153
		c-4.047,0-7.334-3.274-7.334-7.318c0-4.048,3.287-7.33,7.334-7.33c4.04,0,7.315,3.282,7.315,7.33
		C379.864,360.879,376.588,364.153,372.548,364.153z M393.591,364.153c-4.04,0-7.323-3.274-7.323-7.318
		c0-4.048,3.283-7.33,7.323-7.33c4.052,0,7.326,3.282,7.326,7.33C400.917,360.879,397.647,364.153,393.591,364.153z
		 M414.654,364.153c-4.052,0-7.327-3.274-7.327-7.318c0-4.048,3.275-7.33,7.327-7.33c4.043,0,7.322,3.282,7.322,7.33
		C421.976,360.879,418.697,364.153,414.654,364.153z M452.839,342.986H334.35V201.954h118.489V342.986L452.839,342.986z"/>
	<path d="M358.547,176.778h18.017v-32.629c0-6.639-5.379-12.014-12.014-12.014H88.287c-6.633,0-12.014,5.375-12.014,12.014v92.739
		h18.021v-86.736h264.253V176.778L358.547,176.778z"/>
	<path d="M132.899,294.287v36.034h179.931v-36.034H132.899z M226.416,320.544c-4.548,0-8.24-3.693-8.24-8.24
		c0-4.546,3.692-8.239,8.24-8.239c4.549,0,8.24,3.693,8.24,8.239C234.656,316.85,230.965,320.544,226.416,320.544z"/>
  </symbol>

  <symbol id="bug" viewBox="0 0 32 32">
    <title>Cross-Browser Compatibility</title>
    <path d="M32 18v-2h-6.040c-0.183-2.271-0.993-4.345-2.24-6.008h5.061l2.189-8.758-1.94-0.485-1.811 7.242h-5.459c-0.028-0.022-0.056-0.043-0.084-0.064 0.21-0.609 0.324-1.263 0.324-1.944 0-3.305-2.686-5.984-6-5.984s-6 2.679-6 5.984c0 0.68 0.114 1.334 0.324 1.944-0.028 0.021-0.056 0.043-0.084 0.064h-5.459l-1.811-7.242-1.94 0.485 2.189 8.758h5.061c-1.246 1.663-2.056 3.736-2.24 6.008h-6.040v2h6.043c0.119 1.427 0.485 2.775 1.051 3.992h-3.875l-2.189 8.757 1.94 0.485 1.811-7.243h3.511c1.834 2.439 4.606 3.992 7.708 3.992s5.874-1.554 7.708-3.992h3.511l1.811 7.243 1.94-0.485-2.189-8.757h-3.875c0.567-1.217 0.932-2.565 1.051-3.992h6.043z"></path>
  </symbol>

  <symbol id="wrench" viewBox="0 0 32 32">
    <title>Optimization</title>
    <path d="M31.342 25.559l-14.392-12.336c0.67-1.259 1.051-2.696 1.051-4.222 0-4.971-4.029-9-9-9-0.909 0-1.787 0.135-2.614 0.386l5.2 5.2c0.778 0.778 0.778 2.051 0 2.828l-3.172 3.172c-0.778 0.778-2.051 0.778-2.828 0l-5.2-5.2c-0.251 0.827-0.386 1.705-0.386 2.614 0 4.971 4.029 9 9 9 1.526 0 2.963-0.38 4.222-1.051l12.336 14.392c0.716 0.835 1.938 0.882 2.716 0.104l3.172-3.172c0.778-0.778 0.731-2-0.104-2.716z"></path>
  </symbol>

</svg>
